<svg width="220px" height="102px" viewBox="0 0 220 102" version="1.1" xmlns="http://www.w3.org/2000/svg">
    <g stroke="none" stroke-width="1" fill="none" fill-rule="evenodd">
        <g transform="translate(-79.000000, -47.000000)">
            <g transform="translate(79.000000, 47.000000)">
                <path d="M90,79.1478261 C90,75.426087 89.3735499,72.0173913 88.0858469,68.9565217 C86.7981439,65.8608696 84.8839907,63.2173913 82.3085847,60.9913043 C79.7331787,58.7652174 76.5661253,57.0608696 72.737819,55.8434783 C68.9095128,54.626087 64.5243619,54 59.512761,54 L41.7633411,54 L19.9767981,54 C15.9048724,54 12.5638051,54.5217391 9.95359629,55.5652174 C7.37819026,56.6086957 5.32482599,57.9304348 3.86310905,59.6 C2.40139211,61.2347826 1.39211137,63.1130435 0.835266821,65.1652174 C0.278422274,67.2521739 0,69.3391304 0,71.4608696 C0,73.373913 0.208816705,75.1478261 0.626450116,76.7826087 C1.1136891,79.1130435 2.26218097,81.8608696 4.55916473,85.026087 C12.3897912,95.7043478 22.587007,102 41.7285383,102 L60.1044084,102 C70.0580046,102 77.5058005,100.086957 82.4825986,96.226087 C87.5290023,92.4 90,86.6956522 90,79.1478261" id="Path" fill="#FF447C" fill-rule="nonzero"></path>
                <line x1="90" y1="78" x2="44" y2="66" id="Path" stroke="#FFFFFF" stroke-width="4.299"></line>
                <polyline id="Path" stroke="#FFFFFF" stroke-width="4.299" points="30 88 46.7842057 68.2479508 68 54"></polyline>
                <path d="M51.9287723,67.9998584 C52.4762022,71.8454073 49.8074815,75.3846736 46.0096866,75.9291761 C42.1776773,76.4736786 38.6193829,73.8192289 38.071953,70.0077114 C37.5245231,66.1621624 40.1590295,62.6228961 43.9910388,62.0783936 C47.8230481,61.4998597 51.3813424,64.1883408 51.9287723,67.9998584 Z" id="Path" stroke="#FFFFFF" stroke-width="4.299" fill="#1C007B" fill-rule="nonzero"></path>
                <line x1="68" y1="54" x2="91" y2="78" id="Path" stroke="#FFFFFF" stroke-width="4.299"></line>
                <path d="M96.9347728,76.1472027 C97.4220855,79.4191596 95.1247541,82.4822681 91.8527973,82.9347728 C88.5808404,83.4220855 85.5177319,81.1247541 85.0652272,77.8527973 C84.5779145,74.5808404 86.8752459,71.5177319 90.1472027,71.0652272 C93.4191596,70.5779145 96.4822681,72.8752459 96.9347728,76.1472027 Z" id="Path" stroke="#FFFFFF" stroke-width="4.299" fill="#1C007B" fill-rule="nonzero"></path>
                <path d="M71.9496747,52.8595165 C72.3204809,55.3203215 70.6012884,57.6125781 68.1404835,57.9496747 C65.6796785,58.3204809 63.3874219,56.6012884 63.0503253,54.1404835 C62.6795191,51.6796785 64.3987116,49.3874219 66.8595165,49.0503253 C69.2866118,48.6795191 71.5788684,50.3987116 71.9496747,52.8595165 Z" id="Path" stroke="#FFFFFF" stroke-width="4.299" fill="#2B2A69" fill-rule="nonzero"></path>
                <line x1="15" y1="73" x2="30" y2="88" id="Path" stroke="#FFFFFF" stroke-width="4.299"></line>
                <path d="M20.9360636,72.1471576 C21.4183688,75.4117702 19.1181441,78.4537957 15.8533091,78.936068 C12.5884742,79.4183403 9.54624154,77.1182723 9.06393637,73.8536597 C8.5816312,70.589047 10.8818559,67.5470216 14.1466909,67.0647493 C17.4486262,66.582477 20.4908589,68.8454471 20.9360636,72.1471576 Z" id="Path" stroke="#FFFFFF" stroke-width="4.299" fill="#1C007B" fill-rule="nonzero"></path>
                <path d="M34.9448365,87.2789887 C35.3718825,89.9953568 33.2722397,92.5440479 30.2829177,92.9464728 C27.2580085,93.3488977 24.4822095,91.4373794 24.0551635,88.7210113 C23.6281175,86.0046432 25.7277603,83.4559521 28.7170823,83.0535272 C31.7419915,82.6511023 34.5177905,84.5626206 34.9448365,87.2789887 Z" id="Path" stroke="#FFFFFF" stroke-width="4.299" fill="#1C007B" fill-rule="nonzero"></path>
                <path d="M16,34.6146146 L16,0 L23.1984733,0 L23.1984733,13.1731732 C24.1114504,12.2972973 25.0946565,11.5965966 26.2534351,11.0710711 C27.3770992,10.5455455 28.7114504,10.2652653 30.2564885,10.2652653 C31.5206107,10.2652653 32.6793893,10.5455455 33.7328244,11.0710711 C34.7862595,11.5965966 35.7343511,12.4024024 36.5068702,13.4534535 C37.2793893,14.5045045 37.8763359,15.7657658 38.3328244,17.2722723 C38.789313,18.7787788 39,20.4954955 39,22.4224224 C39,24.2092092 38.7541985,25.8908909 38.2625954,27.4324324 C37.7709924,28.973974 37.0687023,30.2702703 36.1557252,31.4264264 C35.2427481,32.5475475 34.1541985,33.4234234 32.9251908,34.0540541 C31.6610687,34.6846847 30.2564885,35 28.7465649,35 C28.0442748,35 27.4122137,34.9299299 26.8503817,34.7897898 C26.2885496,34.6496496 25.7618321,34.4394394 25.3053435,34.1941942 C24.848855,33.9489489 24.3923664,33.6336336 24.0061069,33.2832833 C23.6198473,32.9329329 23.2335878,32.5475475 22.8473282,32.1271271 L22.6015267,33.3183183 C22.4961832,33.8088088 22.2854962,34.1591592 22.0045802,34.3343343 C21.7236641,34.5095095 21.3374046,34.6146146 20.880916,34.6146146 L16,34.6146146 L16,34.6146146 Z M27.7282443,15.6606607 C27.2015267,15.6606607 26.7450382,15.6956957 26.2885496,15.8008008 C25.8671756,15.9059059 25.480916,16.046046 25.0946565,16.2212212 C24.7435115,16.3963964 24.3923664,16.6416416 24.0763359,16.9219219 C23.7603053,17.2022022 23.4442748,17.5175175 23.1633588,17.9029029 L23.1633588,28.0630631 C23.6900763,28.6586587 24.2870229,29.0790791 24.919084,29.3243243 C25.551145,29.5695696 26.2183206,29.6746747 26.9206107,29.6746747 C27.5877863,29.6746747 28.1847328,29.5345345 28.7465649,29.2892893 C29.3083969,29.044044 29.8,28.6236236 30.1862595,28.028028 C30.6076336,27.4324324 30.9236641,26.6966967 31.1343511,25.7857858 C31.3801527,24.8748749 31.4854962,23.7187187 31.4854962,22.4224224 C31.4854962,21.1611612 31.3801527,20.1101101 31.2045802,19.2342342 C31.0290076,18.3583584 30.7480916,17.6576577 30.4320611,17.1321321 C30.1160305,16.6066066 29.6946565,16.2212212 29.2381679,15.975976 C28.8167939,15.7657658 28.2900763,15.6606607 27.7282443,15.6606607 Z" id="Shape" fill="#1C007B" fill-rule="nonzero"></path>
                <path d="M52,4.23814329 C52,4.80322906 51.891129,5.36831483 51.6370968,5.86276488 C51.3830645,6.35721493 51.0564516,6.81634712 50.6572581,7.20484359 C50.2580645,7.59334006 49.75,7.87588295 49.2056452,8.12310797 C48.6612903,8.370333 48.0806452,8.47628658 47.4274194,8.47628658 C46.8104839,8.47628658 46.266129,8.370333 45.7217742,8.12310797 C45.1774194,7.87588295 44.7419355,7.59334006 44.3064516,7.20484359 C43.8709677,6.81634712 43.5806452,6.3925328 43.3629032,5.86276488 C43.1451613,5.36831483 43,4.80322906 43,4.23814329 C43,3.63773966 43.108871,3.10797175 43.3629032,2.57820383 C43.5806452,2.04843592 43.9072581,1.62462159 44.3064516,1.23612513 C44.7056452,0.847628658 45.1774194,0.529767911 45.7217742,0.317860747 C46.266129,0.105953582 46.8104839,0 47.4274194,0 C48.0443548,0 48.625,0.105953582 49.2056452,0.317860747 C49.75,0.529767911 50.2217742,0.847628658 50.6572581,1.23612513 C51.0564516,1.62462159 51.3830645,2.08375378 51.6370968,2.57820383 C51.891129,3.07265388 52,3.63773966 52,4.23814329 Z M51.1290323,10.8425832 L51.1290323,35 L43.6895161,35 L43.6895161,10.8425832 L51.1290323,10.8425832 Z" id="Shape" fill="#1C007B" fill-rule="nonzero"></path>
                <path d="M64.6259314,10 C65.6199702,10 66.5454545,10.1061093 67.4366617,10.318328 C68.3278689,10.5305466 69.1505216,10.8135048 69.90462,11.1672026 L77,11.1672026 L77,13.8199357 C77,14.2090032 76.8971684,14.5273312 76.657228,14.7749196 C76.4515648,15.022508 76.0745156,15.1993569 75.5260805,15.3054662 L73.8122206,15.6945338 C74.0178838,16.4019293 74.1207154,17.1093248 74.1207154,17.85209 C74.1207154,19.0546624 73.880775,20.1511254 73.4008942,21.1061093 C72.9210134,22.0610932 72.2354694,22.8745981 71.3785395,23.5819936 C70.5216095,24.2540193 69.5275708,24.7845659 68.3621461,25.1382637 C67.1967213,25.4919614 65.9627422,25.7041801 64.6259314,25.7041801 C63.8718331,25.7041801 63.1862891,25.6688103 62.5350224,25.562701 C62.0208644,25.8810289 61.780924,26.2347267 61.780924,26.659164 C61.780924,27.0836013 61.9865872,27.3665595 62.3979136,27.5434084 C62.8092399,27.7202572 63.3576751,27.8617363 64.0432191,27.9324759 C64.728763,28.0032154 65.4828614,28.0385852 66.3740686,28.0385852 C67.2652757,28.0385852 68.1222057,28.073955 69.04769,28.1800643 C69.9388972,28.2508039 70.8301043,28.4276527 71.7213115,28.6045016 C72.6125186,28.8167203 73.366617,29.1350482 74.052161,29.5948553 C74.7377049,30.0546624 75.2861401,30.6559486 75.6974665,31.3987138 C76.1087928,32.1414791 76.314456,33.1318328 76.314456,34.2990354 C76.314456,35.3954984 76.0745156,36.4565916 75.5603577,37.5176849 C75.0461997,38.5787781 74.2921013,39.4983923 73.2980626,40.3118971 C72.3040238,41.1254019 71.0700447,41.7620579 69.6304024,42.2572347 C68.1907601,42.7524116 66.5111773,43 64.6602086,43 C62.8092399,43 61.2324888,42.8231511 59.8956781,42.4694534 C58.5588674,42.1157556 57.461997,41.6559486 56.5707899,41.0546624 C55.6795827,40.4533762 55.0283159,39.7813505 54.6169896,39.0385852 C54.2056632,38.2604502 54,37.4823151 54,36.6688103 C54,35.607717 54.3084948,34.6881029 54.9597615,33.9453376 C55.5767511,33.2025723 56.4679583,32.6366559 57.5648286,32.2122186 C57.0506706,31.8585209 56.6050671,31.3987138 56.2965723,30.8327974 C55.9880775,30.266881 55.8166915,29.5594855 55.8166915,28.7106109 C55.8166915,28.3569132 55.8852459,27.9678457 55.9880775,27.5787781 C56.1251863,27.1897106 56.2965723,26.8006431 56.5365127,26.4115756 C56.7764531,26.022508 57.119225,25.6688103 57.4962742,25.3504823 C57.8733234,24.9967846 58.3532042,24.7138264 58.9016393,24.4308682 C57.6676602,23.7588424 56.7078987,22.8745981 56.0223547,21.778135 C55.3368107,20.681672 54.9597615,19.3729904 54.9597615,17.9228296 C54.9597615,16.7202572 55.1997019,15.6237942 55.7138599,14.6334405 C56.2280179,13.6784566 56.8792846,12.829582 57.7704918,12.1575563 C58.6274218,11.4855305 59.6557377,10.9549839 60.8211624,10.6012862 C61.9865872,10.1768489 63.2548435,10 64.6259314,10 Z M69.8360656,35.4662379 C69.8360656,35.0771704 69.733234,34.7588424 69.4932936,34.511254 C69.2533532,34.2636656 68.9448584,34.0868167 68.533532,33.9453376 C68.1222057,33.8038585 67.6766021,33.6977492 67.1281669,33.6270096 C66.5797317,33.5562701 66.0312966,33.5209003 65.414307,33.5209003 C64.7973174,33.5209003 64.1460507,33.5209003 63.4947839,33.5209003 C62.8435171,33.5209003 62.1579732,33.4501608 61.5409836,33.3086817 C61.09538,33.6270096 60.752608,33.9807074 60.4783905,34.3344051 C60.2041729,34.7234727 60.0670641,35.14791 60.0670641,35.6430868 C60.0670641,35.9967846 60.1356185,36.3151125 60.2727273,36.562701 C60.4098361,36.8456592 60.6840537,37.0932476 61.0268256,37.3054662 C61.4038748,37.5176849 61.8837556,37.659164 62.5007452,37.8006431 C63.1177347,37.9067524 63.8718331,37.977492 64.8315946,37.977492 C65.8256334,37.977492 66.6825633,37.9067524 67.3338301,37.8006431 C67.9850969,37.659164 68.4992548,37.4823151 68.876304,37.2700965 C69.2533532,37.0578778 69.5275708,36.7749196 69.6646796,36.4565916 C69.733234,36.1736334 69.8360656,35.8199357 69.8360656,35.4662379 Z M64.6259314,21.2475884 C65.7913562,21.2475884 66.6140089,20.9646302 67.1624441,20.3633441 C67.6766021,19.7620579 67.9508197,18.9839228 67.9508197,18.0289389 C67.9508197,17.0385852 67.6766021,16.2604502 67.1624441,15.7299035 C66.6482861,15.1993569 65.7913562,14.8810289 64.6259314,14.8810289 C63.4605067,14.8810289 62.6378539,15.1639871 62.0894188,15.7299035 C61.5752608,16.2958199 61.3010432,17.073955 61.3010432,18.0289389 C61.3010432,18.488746 61.3695976,18.9131833 61.5067064,19.3022508 C61.6438152,19.6913183 61.8494784,20.0450161 62.0894188,20.3279743 C62.3636364,20.6109325 62.7064083,20.8585209 63.1177347,21 C63.5633383,21.1768489 64.0432191,21.2475884 64.6259314,21.2475884 Z" id="Shape" fill="#1C007B" fill-rule="nonzero"></path>
                <path d="M81,43 L81,10.4235294 L82.2631579,10.4235294 C82.4736842,10.4235294 82.6491228,10.4588235 82.754386,10.5647059 C82.8947368,10.6705882 82.9649123,10.8117647 82.9649123,11.0235294 L83.1754386,14.7294118 C84.2280702,13.2823529 85.4561404,12.1176471 86.8947368,11.2705882 C88.2982456,10.4235294 89.9122807,10 91.6666667,10 C94.6140351,10 96.8947368,11.0235294 98.5438596,13.0705882 C100.192982,15.1176471 101,18.1882353 101,22.2823529 C101,24.0470588 100.754386,25.6705882 100.298246,27.1882353 C99.8421053,28.7058824 99.1754386,30.0470588 98.2982456,31.1411765 C97.4210526,32.2705882 96.3333333,33.1529412 95.0350877,33.7882353 C93.7368421,34.4235294 92.2631579,34.7411765 90.5789474,34.7411765 C88.9298246,34.7411765 87.5263158,34.4588235 86.3333333,33.8588235 C85.1403509,33.2588235 84.122807,32.3764706 83.245614,31.2117647 L83.245614,42.9647059 L81,42.9647059 L81,43 Z M91,11.8705882 C89.4210526,11.8705882 87.9824561,12.2941176 86.6842105,13.1058824 C85.3859649,13.9529412 84.2631579,15.0823529 83.245614,16.5647059 L83.245614,29.2 C84.1578947,30.5764706 85.1754386,31.5647059 86.2982456,32.1294118 C87.4210526,32.6941176 88.6842105,32.9764706 90.122807,32.9764706 C91.5263158,32.9764706 92.754386,32.7294118 93.8070175,32.2 C94.8596491,31.6705882 95.7368421,30.9647059 96.4736842,30.0117647 C97.1754386,29.0588235 97.7368421,27.9294118 98.0877193,26.6235294 C98.4385965,25.3176471 98.6140351,23.8705882 98.6140351,22.2823529 C98.6140351,18.7176471 97.9473684,16.0705882 96.6491228,14.3764706 C95.3508772,12.7176471 93.4561404,11.8705882 91,11.8705882 Z" id="Shape" fill="#1C007B" fill-rule="nonzero"></path>
                <path d="M111,3.15321757 C111,3.43105209 110.933333,3.70888662 110.833333,3.95199183 C110.733333,4.19509704 110.566667,4.40347293 110.4,4.61184883 C110.233333,4.7854954 110,4.95914198 109.766667,5.06332993 C109.533333,5.16751788 109.266667,5.23697651 109,5.23697651 C108.733333,5.23697651 108.466667,5.16751788 108.233333,5.06332993 C108,4.95914198 107.766667,4.7854954 107.6,4.61184883 C107.433333,4.43820225 107.266667,4.19509704 107.166667,3.95199183 C107.066667,3.70888662 107,3.43105209 107,3.15321757 C107,2.87538304 107.066667,2.59754852 107.166667,2.31971399 C107.266667,2.04187947 107.433333,1.83350358 107.6,1.62512768 C107.766667,1.4514811 108,1.27783453 108.233333,1.17364658 C108.466667,1.06945863 108.733333,1 109,1 C109.266667,1 109.533333,1.06945863 109.766667,1.17364658 C110,1.27783453 110.233333,1.4514811 110.4,1.62512768 C110.566667,1.79877426 110.733333,2.04187947 110.833333,2.31971399 C110.966667,2.59754852 111,2.87538304 111,3.15321757 Z M110.066667,11.3146067 L110.066667,35 L107.9,35 L107.9,11.3146067 L110.066667,11.3146067 Z" id="Shape" fill="#1C007B" fill-rule="nonzero"></path>
                <path d="M135.024715,14.4236805 C134.952471,14.4921541 134.880228,14.5606277 134.771863,14.6291013 C134.69962,14.6975749 134.591255,14.6975749 134.446768,14.6975749 C134.26616,14.6975749 134.04943,14.5948645 133.760456,14.3894437 C133.471483,14.1840228 133.074144,13.9443652 132.604563,13.7047076 C132.134981,13.4650499 131.520913,13.2253923 130.798479,13.0199715 C130.076046,12.8145506 129.209125,12.7118402 128.197719,12.7118402 C126.788973,12.7118402 125.524715,12.9514979 124.441065,13.4308131 C123.357414,13.9101284 122.418251,14.5948645 121.659696,15.4850214 C120.901141,16.3751783 120.323194,17.4707561 119.925856,18.7375178 C119.528517,20.0042796 119.347909,21.4422254 119.347909,23.0171184 C119.347909,24.660485 119.564639,26.0984308 119.961977,27.3651926 C120.359316,28.6319544 120.937262,29.6932953 121.695817,30.5834522 C122.454373,31.4393723 123.321293,32.1241084 124.404943,32.5691869 C125.452471,33.0142653 126.644487,33.253923 127.908745,33.253923 C129.10076,33.253923 130.076046,33.1169757 130.906844,32.8430813 C131.701521,32.5691869 132.351711,32.2952924 132.893536,31.9871612 C133.39924,31.67903 133.8327,31.3708987 134.121673,31.1312411 C134.410646,30.8573466 134.663498,30.7203994 134.844106,30.7203994 C135.060837,30.7203994 135.241445,30.788873 135.34981,30.9600571 L136,31.7132668 C135.602662,32.192582 135.13308,32.6034237 134.555133,33.0142653 C133.977186,33.425107 133.326996,33.767475 132.604563,34.0756063 C131.882129,34.3837375 131.087452,34.5891583 130.256654,34.7603424 C129.389734,34.9315264 128.522814,35 127.58365,35 C126.030418,35 124.585551,34.7261056 123.285171,34.1783167 C121.984791,33.6305278 120.865019,32.8430813 119.961977,31.850214 C119.022814,30.8231098 118.30038,29.5563481 117.794677,28.0841655 C117.288973,26.6119829 117,24.9001427 117,23.0171184 C117,21.2368046 117.252852,19.5934379 117.758555,18.1554922 C118.264259,16.6833096 118.986692,15.4165478 119.925856,14.3552068 C120.865019,13.2938659 122.020913,12.4721826 123.429658,11.8901569 C124.802281,11.3081312 126.391635,11 128.161597,11 C129.750951,11 131.195817,11.2396576 132.423954,11.7189729 C133.652091,12.1982882 134.735741,12.8487874 135.674905,13.7047076 L135.024715,14.4236805 Z" id="Path" fill="#1C007B" fill-rule="nonzero"></path>
                <path d="M146.933985,35 C145.359413,35 144.127139,34.5396996 143.237164,33.6545064 C142.347188,32.7339056 141.93643,31.3530043 141.93643,29.4409871 L141.93643,12.9409871 L138.581907,12.9409871 C138.410758,12.9409871 138.273839,12.9055794 138.171149,12.7993562 C138.06846,12.693133 138,12.5515021 138,12.3744635 L138,11.4892704 L141.97066,11.2060086 L142.518337,2.56652361 C142.518337,2.4248927 142.586797,2.2832618 142.689487,2.17703863 C142.792176,2.07081545 142.929095,2 143.100244,2 L144.127139,2 L144.127139,11.2060086 L151.452323,11.2060086 L151.452323,12.9409871 L144.127139,12.9409871 L144.127139,29.2993562 C144.127139,29.972103 144.195599,30.5386266 144.366748,30.998927 C144.537897,31.4592275 144.743276,31.8841202 145.051345,32.167382 C145.325183,32.4860515 145.667482,32.6984979 146.07824,32.8401288 C146.454768,32.9817597 146.899756,33.0525751 147.344743,33.0525751 C147.892421,33.0525751 148.405868,32.9817597 148.782396,32.804721 C149.158924,32.6276824 149.535452,32.4506438 149.843521,32.2381974 C150.151589,32.0257511 150.391198,31.8487124 150.562347,31.6716738 C150.733496,31.4946352 150.904645,31.4238197 151.007335,31.4238197 C151.144254,31.4238197 151.246944,31.4946352 151.383863,31.6716738 L152,32.6984979 C151.418093,33.3712446 150.665037,33.9377682 149.740831,34.3272532 C148.850856,34.8229614 147.92665,35 146.933985,35 Z" id="Path" fill="#1C007B" fill-rule="nonzero"></path>
                <path d="M158.304104,11 L158.304104,26.0778098 C158.304104,28.2910663 158.835821,30.0201729 159.863806,31.2651297 C160.891791,32.5100865 162.48694,33.1325648 164.613806,33.1325648 C166.173507,33.1325648 167.662313,32.7521614 169.009328,31.9567723 C170.356343,31.1613833 171.597015,30.0893372 172.695896,28.7060519 L172.695896,11 L175,11 L175,34.5850144 L173.723881,34.5850144 C173.26306,34.5850144 173.050373,34.3775216 173.014925,33.962536 L172.802239,30.4697406 C171.66791,31.8184438 170.391791,32.925072 168.938433,33.7550432 C167.485075,34.5850144 165.854478,35 164.046642,35 C162.699627,35 161.529851,34.7925072 160.537313,34.3775216 C159.544776,33.962536 158.69403,33.3746398 158.020522,32.6138329 C157.347015,31.8530259 156.850746,30.9193084 156.496269,29.8126801 C156.141791,28.7060519 156,27.4956772 156,26.1123919 L156,11 L158.304104,11 Z" id="Path" fill="#1C007B" fill-rule="nonzero"></path>
                <path d="M183,34 L183,10.4155844 L184.217391,10.4155844 C184.503836,10.4155844 184.682864,10.4848485 184.826087,10.5887446 C184.969309,10.6926407 185.005115,10.9004329 185.040921,11.1428571 L185.219949,16.1298701 C186.007673,14.2251082 187.046036,12.7012987 188.370844,11.6277056 C189.695652,10.5541126 191.306905,10 193.204604,10 C193.956522,10 194.601023,10.0692641 195.245524,10.2424242 C195.85422,10.3809524 196.462916,10.6233766 197,10.9004329 L196.677749,12.4588745 C196.641944,12.7012987 196.462916,12.8398268 196.176471,12.8398268 C196.069054,12.8398268 195.925831,12.8051948 195.746803,12.7359307 C195.567775,12.6666667 195.352941,12.5974026 195.066496,12.5281385 C194.780051,12.4588745 194.457801,12.3896104 194.063939,12.3203463 C193.670077,12.2510823 193.204604,12.2164502 192.703325,12.2164502 C190.841432,12.2164502 189.337596,12.7705628 188.15601,13.8787879 C186.974425,14.987013 186.007673,16.5800866 185.29156,18.6580087 L185.29156,34 L183,34 Z" id="Path" fill="#1C007B" fill-rule="nonzero"></path>
                <path d="M210.645724,10 C211.972077,10 213.228621,10.2492877 214.380454,10.7122507 C215.532286,11.1752137 216.509599,11.8874644 217.347295,12.7777778 C218.184991,13.6680912 218.848168,14.8076923 219.30192,16.0897436 C219.755672,17.4074074 220,18.9031339 220,20.6125356 C220,20.968661 219.965096,21.2179487 219.860384,21.3603989 C219.755672,21.502849 219.581152,21.5384615 219.371728,21.5384615 L202.198953,21.5384615 L202.198953,22.0014245 C202.198953,23.8176638 202.408377,25.4202279 202.827225,26.8091168 C203.246073,28.1980057 203.839442,29.3376068 204.60733,30.2991453 C205.375218,31.2250712 206.282723,31.9373219 207.364747,32.4002849 C208.446771,32.8632479 209.668412,33.1125356 210.994764,33.1125356 C212.181501,33.1125356 213.228621,32.9700855 214.101222,32.7207977 C214.973822,32.4358974 215.706806,32.1509972 216.300175,31.8304843 C216.893543,31.5099715 217.382199,31.1894587 217.731239,30.9401709 C218.080279,30.6552707 218.324607,30.548433 218.499127,30.548433 C218.708551,30.548433 218.848168,30.6196581 218.987784,30.7977208 L219.616056,31.5811966 C219.232112,32.0797721 218.743455,32.5071225 218.115183,32.9344729 C217.486911,33.3618234 216.788831,33.7179487 216.020942,34.002849 C215.253054,34.2877493 214.415358,34.537037 213.542757,34.7150997 C212.670157,34.8931624 211.762653,35 210.890052,35 C209.249564,35 207.783595,34.7150997 206.457243,34.1452991 C205.13089,33.5754986 203.979058,32.7207977 203.001745,31.6168091 C202.059337,30.5128205 201.291449,29.1595442 200.767888,27.5569801 C200.244328,25.954416 200,24.1381766 200,22.0726496 C200,20.3276353 200.244328,18.7250712 200.732984,17.2649573 C201.22164,15.8048433 201.919721,14.522792 202.827225,13.454416 C203.734729,12.3860399 204.851658,11.5669516 206.212914,10.9615385 C207.469459,10.2849003 208.970332,10 210.645724,10 Z M210.680628,11.7094017 C209.458988,11.7094017 208.342059,11.8874644 207.399651,12.2792023 C206.422339,12.6709402 205.584642,13.2407407 204.886562,13.9529915 C204.188482,14.7008547 203.595113,15.5555556 203.176265,16.5883191 C202.722513,17.6210826 202.443281,18.7606838 202.303665,20.042735 L217.975567,20.042735 C217.975567,18.7250712 217.801047,17.5854701 217.452007,16.5527066 C217.102967,15.519943 216.614311,14.6296296 215.986038,13.9173789 C215.357766,13.2051282 214.589878,12.6353276 213.682373,12.2792023 C212.774869,11.9230769 211.762653,11.7094017 210.680628,11.7094017 Z" id="Shape" fill="#1C007B" fill-rule="nonzero"></path>
            </g>
        </g>
    </g>
</svg>